<?xml version="1.0" encoding="UTF-8" standalone="no"?>
<!-- Created with Inkscape (http://www.inkscape.org/) -->

<svg
   width="511.66699"
   height="511.7832"
   viewBox="0 0 135.37886 135.40932"
   version="1.1"
   id="svg1"
   xml:space="preserve"
   sodipodi:docname="sunny.svg"
   inkscape:export-filename="rain.svg"
   inkscape:export-xdpi="96"
   inkscape:export-ydpi="96"
   xmlns:inkscape="http://www.inkscape.org/namespaces/inkscape"
   xmlns:sodipodi="http://sodipodi.sourceforge.net/DTD/sodipodi-0.dtd"
   xmlns="http://www.w3.org/2000/svg"
   xmlns:svg="http://www.w3.org/2000/svg"><sodipodi:namedview
     id="namedview1"
     pagecolor="#ffffff"
     bordercolor="#000000"
     borderopacity="0.25"
     inkscape:showpageshadow="2"
     inkscape:pageopacity="0.0"
     inkscape:pagecheckerboard="0"
     inkscape:deskcolor="#d1d1d1"
     inkscape:document-units="mm"
     showguides="true"
     inkscape:lockguides="false" /><defs
     id="defs1" /><g
     inkscape:label="Warstwa 1"
     inkscape:groupmode="layer"
     id="layer1"
     style="display:inline"
     transform="translate(16.34585,4.4797775)"><g
       id="g2"
       transform="matrix(1.2200035,0,0,1.2200035,16.082282,-32.434828)"><rect
         style="display:inline;fill:#f0f5f7;fill-opacity:1;stroke-width:0.158134;stroke-linecap:round;stroke-linejoin:round"
         id="rect2-3-3-4-4-9-8-8-0-1-5-6-5-7-1-4"
         width="16.396038"
         height="3.0905519"
         x="-35.588688"
         y="-53.23534"
         ry="1.5452759"
         transform="matrix(-0.99999764,-0.00217102,0.01557135,-0.99987876,0,0)" /><rect
         style="display:inline;fill:#dde9ed;fill-opacity:1;stroke-width:0.142767;stroke-linecap:round;stroke-linejoin:round"
         id="rect2-3-3-4-4-9-8-8-0-1-5-6-5-7-1-4-1"
         width="13.36478"
         height="3.090426"
         x="-50.789772"
         y="-53.179939"
         ry="1.545213"
         transform="matrix(-0.99999645,-0.00266343,0.01269306,-0.99991944,0,0)" /><rect
         style="display:inline;fill:#dde9ed;fill-opacity:1;stroke-width:0.156747;stroke-linecap:round;stroke-linejoin:round"
         id="rect2-3-3-4-4-9-8-8-0-1-5-6-5-7-1-4-1-0"
         width="16.109777"
         height="3.0905387"
         x="-44.113079"
         y="-49.515457"
         ry="1.5452694"
         transform="matrix(-0.99999756,-0.0022096,0.01529955,-0.99988296,0,0)" /><rect
         style="display:inline;fill:#f0f5f7;fill-opacity:1;stroke-width:0.19608;stroke-linecap:round;stroke-linejoin:round"
         id="rect2-3-3-4-4-9-8-8-0-1-5-6-5-7-1-4-4"
         width="25.2047"
         height="3.0910625"
         x="-39.556908"
         y="-57.074406"
         ry="1.5455313"
         transform="matrix(-0.999999,-0.00141228,0.02393303,-0.99971356,0,0)"
         inkscape:label="rect2-3-3-4-4-9-8-8-0-1-5-6-5-7-1-4-4" /><rect
         style="display:inline;fill:#f0f5f7;fill-opacity:1;stroke-width:0.220099;stroke-linecap:round;stroke-linejoin:round"
         id="rect2-3-3-4-4-9-8-8-0-1-5-6-5-7-1-4-4-4"
         width="31.752577"
         height="3.0915823"
         x="-43.916595"
         y="-60.799217"
         ry="1.5457911"
         transform="matrix(-0.99999937,-0.00112105,0.03014548,-0.99954552,0,0)" /><rect
         style="display:inline;fill:#f0f5f7;fill-opacity:1;stroke-width:0.238181;stroke-linecap:round;stroke-linejoin:round"
         id="rect2-3-3-4-4-9-8-8-0-1-5-6-5-7-1-4-4-4-8"
         width="37.17791"
         height="3.0921032"
         x="-47.396725"
         y="-64.551254"
         ry="1.5460516"
         transform="matrix(-0.99999954,-9.5745635e-4,0.03529028,-0.9993771,0,0)" /><rect
         style="display:inline;fill:#f0f5f7;fill-opacity:1;stroke-width:0.248173;stroke-linecap:round;stroke-linejoin:round"
         id="rect2-3-3-4-4-9-8-8-0-1-5-6-5-7-1-4-4-4-8-8"
         width="40.358253"
         height="3.0924468"
         x="-49.58691"
         y="-68.236038"
         ry="1.5462234"
         transform="matrix(-0.99999961,-8.820061e-4,0.0383049,-0.9992661,0,0)" /><rect
         style="display:inline;fill:#f0f5f7;fill-opacity:1;stroke-width:0.25421;stroke-linecap:round;stroke-linejoin:round"
         id="rect2-3-3-4-4-9-8-8-0-1-5-6-5-7-1-4-4-4-8-8-5"
         width="42.342518"
         height="3.0926754"
         x="-51.334251"
         y="-71.975067"
         ry="1.5463377"
         transform="matrix(-0.99999965,-8.4067335e-4,0.04018524,-0.99919225,0,0)" /><rect
         style="display:inline;fill:#f0f5f7;fill-opacity:1;stroke-width:0.2864;stroke-linecap:round;stroke-linejoin:round"
         id="rect2-3-3-4-4-9-8-8-0-1-5-6-5-7-1-4-4-4-8-8-5-8"
         width="53.718323"
         height="3.094197"
         x="-58.649071"
         y="-75.746323"
         ry="1.5470985"
         transform="matrix(-0.99999978,-6.6264593e-4,0.0509564,-0.99870088,0,0)" /><rect
         style="display:inline;fill:#f0f5f7;fill-opacity:1;stroke-width:0.310268;stroke-linecap:round;stroke-linejoin:round"
         id="rect2-3-3-4-4-9-8-8-0-1-5-6-5-7-1-4-4-4-8-8-5-8-9"
         width="63.014381"
         height="3.0957074"
         x="-62.639809"
         y="-79.472862"
         ry="1.5478537"
         transform="matrix(-0.99999984,-5.6489054e-4,0.05974535,-0.99821365,0,0)" /><rect
         style="display:inline;fill:#f0f5f7;fill-opacity:1;stroke-width:0.3234;stroke-linecap:round;stroke-linejoin:round"
         id="rect2-3-3-4-4-9-8-8-0-1-5-6-5-7-1-4-4-4-8-8-5-8-9-0"
         width="68.439476"
         height="3.0966995"
         x="-65.859222"
         y="-83.18808"
         ry="1.5483497"
         transform="matrix(-0.99999986,-5.2011252e-4,0.06486822,-0.99789384,0,0)" /><rect
         style="display:inline;fill:#f0f5f7;fill-opacity:1;stroke-width:0.330644;stroke-linecap:round;stroke-linejoin:round"
         id="rect2-3-3-4-4-9-8-8-0-1-5-6-5-7-1-4-4-4-8-8-5-8-9-0-4"
         width="71.526146"
         height="3.0973003"
         x="-67.9561"
         y="-86.923546"
         ry="1.5486501"
         transform="matrix(-0.99999988,-4.9766738e-4,0.06778067,-0.99770025,0,0)" /><rect
         style="display:inline;fill:#f0f5f7;fill-opacity:1;stroke-width:0.330644;stroke-linecap:round;stroke-linejoin:round"
         id="rect2-3-3-4-4-9-8-8-0-1-5-6-5-7-1-4-4-4-8-8-5-8-9-0-4-2"
         width="71.526146"
         height="3.0973003"
         x="-68.286148"
         y="-90.599709"
         ry="1.5486501"
         transform="matrix(-0.99999988,-4.9766738e-4,0.06778067,-0.99770025,0,0)" /><rect
         style="display:inline;fill:#f0f5f7;fill-opacity:1;stroke-width:0.326987;stroke-linecap:round;stroke-linejoin:round"
         id="rect2-3-3-4-4-9-8-8-0-1-5-6-5-7-1-4-4-4-8-8-5-8-9-0-4-2-8"
         width="69.959435"
         height="3.096992"
         x="-67.700249"
         y="-94.348839"
         ry="1.548496"
         transform="matrix(-0.99999987,-5.0881243e-4,0.0663026,-0.99779956,0,0)" /><rect
         style="display:inline;fill:#f0f5f7;fill-opacity:1;stroke-width:0.315576;stroke-linecap:round;stroke-linejoin:round"
         id="rect2-3-3-4-4-9-8-8-0-1-5-6-5-7-1-4-4-4-8-8-5-8-9-0-4-2-8-6"
         width="65.180862"
         height="3.0960939"
         x="-65.089096"
         y="-98.083733"
         ry="1.5480469"
         transform="matrix(-0.99999985,-5.4611479e-4,0.06179172,-0.99808907,0,0)" /><rect
         style="display:inline;fill:#f0f5f7;fill-opacity:1;stroke-width:0.288566;stroke-linecap:round;stroke-linejoin:round"
         id="rect2-3-3-4-4-9-8-8-0-1-5-6-5-7-1-4-4-4-8-8-5-8-9-0-4-2-8-6-6"
         width="54.532318"
         height="3.0943198"
         x="-58.83448"
         y="-101.76335"
         ry="1.5471599"
         transform="matrix(-0.99999979,-6.5275482e-4,0.05172649,-0.99866129,0,0)" /><rect
         style="display:inline;fill:#dde9ed;fill-opacity:1;stroke-width:0.133082;stroke-linecap:round;stroke-linejoin:round"
         id="rect2-3-3-4-4-9-8-8-0-1-5-6-5-7-1-4-4-4-8-8-5-8-9-0-4-2-8-6-6-3"
         width="11.613348"
         height="3.0903654"
         x="-71.248199"
         y="-101.5211"
         ry="1.5451827"
         transform="matrix(-0.9999953,-0.00306511,0.01102986,-0.99993917,0,0)" /><rect
         style="display:inline;fill:#dde9ed;fill-opacity:1;stroke-width:0.15115;stroke-linecap:round;stroke-linejoin:round"
         id="rect2-3-3-4-4-9-8-8-0-1-5-6-5-7-1-4-4-4-8-8-5-8-9-0-4-2-8-6-6-3-0"
         width="14.980363"
         height="3.0904901"
         x="-77.228546"
         y="-97.719666"
         ry="1.5452451"
         transform="matrix(-0.99999718,-0.00237619,0.01422716,-0.99989879,0,0)" /><rect
         style="display:inline;fill:#dde9ed;fill-opacity:1;stroke-width:0.143399;stroke-linecap:round;stroke-linejoin:round"
         id="rect2-3-3-4-4-9-8-8-0-1-5-6-5-7-1-4-4-4-8-8-5-8-9-0-4-2-8-6-6-3-0-99"
         width="13.483687"
         height="3.0904307"
         x="-60.996929"
         y="-64.41729"
         ry="1.5452154"
         transform="matrix(-0.99999652,-0.00263994,0.01280597,-0.999918,0,0)" /><rect
         style="display:inline;fill:#dde9ed;fill-opacity:1;stroke-width:0.143399;stroke-linecap:round;stroke-linejoin:round"
         id="rect2-3-3-4-4-9-8-8-0-1-5-6-5-7-1-4-4-4-8-8-5-8-9-0-4-2-8-6-6-3-0-99-3"
         width="13.483687"
         height="3.0904307"
         x="-58.739418"
         y="-60.702553"
         ry="1.5452154"
         transform="matrix(-0.99999652,-0.00263994,0.01280597,-0.999918,0,0)" /><rect
         style="display:inline;fill:#dde9ed;fill-opacity:1;stroke-width:0.146875;stroke-linecap:round;stroke-linejoin:round"
         id="rect2-3-3-4-4-9-8-8-0-1-5-6-5-7-1-4-4-4-8-8-5-8-9-0-4-2-8-6-6-3-0-99-3-7"
         width="14.145132"
         height="3.0904562"
         x="-56.006145"
         y="-57.009727"
         ry="1.5452281"
         transform="matrix(-0.99999683,-0.00251649,0.01343406,-0.99990976,0,0)" /><rect
         style="display:inline;fill:#dde9ed;fill-opacity:1;stroke-width:0.156939;stroke-linecap:round;stroke-linejoin:round"
         id="rect2-3-3-4-4-9-8-8-0-1-5-6-5-7-1-4-4-4-8-8-5-8-9-0-4-2-8-6-6-3-0-9"
         width="16.149641"
         height="3.0905409"
         x="-80.862236"
         y="-94.023285"
         ry="1.5452704"
         transform="matrix(-0.99999757,-0.00220415,0.0153374,-0.99988238,0,0)" /><rect
         style="display:inline;fill:#dde9ed;fill-opacity:1;stroke-width:0.166427;stroke-linecap:round;stroke-linejoin:round"
         id="rect2-3-3-4-4-9-8-8-0-1-5-6-5-7-1-4-4-4-8-8-5-8-9-0-4-2-8-6-6-3-0-9-9"
         width="18.160797"
         height="3.090637"
         x="-82.732635"
         y="-90.304932"
         ry="1.5453185"
         transform="matrix(-0.99999808,-0.00196006,0.01724688,-0.99985126,0,0)" /><rect
         style="display:inline;fill:#dde9ed;fill-opacity:1;stroke-width:0.173405;stroke-linecap:round;stroke-linejoin:round"
         id="rect2-3-3-4-4-9-8-8-0-1-5-6-5-7-1-4-4-4-8-8-5-8-9-0-4-2-8-6-6-3-0-9-9-0"
         width="19.715185"
         height="3.090719"
         x="-69.513847"
         y="-68.127754"
         ry="1.5453595"
         transform="matrix(-0.99999837,-0.00180552,0.01872255,-0.99982472,0,0)" /><rect
         style="display:inline;fill:#dde9ed;fill-opacity:1;stroke-width:0.169927;stroke-linecap:round;stroke-linejoin:round"
         id="rect2-3-3-4-4-9-8-8-0-1-5-6-5-7-1-4-4-4-8-8-5-8-9-0-4-2-8-6-6-3-0-9-9-9"
         width="18.932518"
         height="3.0906768"
         x="-83.49234"
         y="-86.648842"
         ry="1.5453384"
         transform="matrix(-0.99999823,-0.00188016,0.01797954,-0.99983836,0,0)" /><rect
         style="display:inline;fill:#dde9ed;fill-opacity:1;stroke-width:0.176052;stroke-linecap:round;stroke-linejoin:round"
         id="rect2-3-3-4-4-9-8-8-0-1-5-6-5-7-1-4-4-4-8-8-5-8-9-0-4-2-8-6-6-3-0-9-9-9-7"
         width="20.321543"
         height="3.0907528"
         x="-82.289757"
         y="-79.343163"
         ry="1.5453764"
         transform="matrix(-0.99999847,-0.00175165,0.01929818,-0.99981377,0,0)" /><rect
         style="display:inline;fill:#dde9ed;fill-opacity:1;stroke-width:0.18058;stroke-linecap:round;stroke-linejoin:round"
         id="rect2-3-3-4-4-9-8-8-0-1-5-6-5-7-1-4-4-4-8-8-5-8-9-0-4-2-8-6-6-3-0-9-9-9-7-2"
         width="21.379847"
         height="3.0908144"
         x="-80.687889"
         y="-75.617157"
         ry="1.5454072"
         transform="matrix(-0.99999861,-0.00166494,0.02030279,-0.99979388,0,0)" /><rect
         style="display:inline;fill:#dde9ed;fill-opacity:1;stroke-width:0.174587;stroke-linecap:round;stroke-linejoin:round"
         id="rect2-3-3-4-4-9-8-8-0-1-5-6-5-7-1-4-4-4-8-8-5-8-9-0-4-2-8-6-6-3-0-9-9-9-3"
         width="19.984863"
         height="3.0907338"
         x="-83.58432"
         y="-82.934502"
         ry="1.5453669"
         transform="matrix(-0.99999841,-0.00178116,0.01897857,-0.99981989,0,0)" /><rect
         style="display:inline;fill:#dde9ed;fill-opacity:1;stroke-width:0.200646;stroke-linecap:round;stroke-linejoin:round"
         id="rect2-3-3-4-4-9-8-8-0-1-5-6-5-7-1-4-4-4-8-8-5-8-9-0-4-2-8-6-6-3-0-9-9-9-3-6"
         width="26.392473"
         height="3.0911479"
         x="-77.807915"
         y="-71.878082"
         ry="1.5455739"
         transform="matrix(-0.99999909,-0.00134873,0.0250602,-0.99968594,0,0)" /></g><g
       id="g1"
       transform="matrix(0.68983385,0,0,0.68983385,-76.876834,23.577971)"
       style="display:inline"><g
         id="g3"
         style="fill:#c0c0c0;fill-opacity:1"><rect
           style="display:inline;fill:#c0c0c0;fill-opacity:1;stroke-width:0.216844;stroke-linecap:round;stroke-linejoin:round"
           id="rect2-3-3-4-4-9-8-8-0-1-5-6-5-7-1-4-15"
           width="22.263374"
           height="4.2798409"
           x="-157.58502"
           y="-44.806347"
           ry="2.1399205"
           transform="matrix(-0.99999755,-0.00221414,0.01526816,-0.99988343,0,0)" /><rect
           style="display:inline;fill:#c0c0c0;fill-opacity:1;stroke-width:0.271536;stroke-linecap:round;stroke-linejoin:round"
           id="rect2-3-3-4-4-9-8-8-0-1-5-6-5-7-1-4-4-2"
           width="34.903999"
           height="4.2805681"
           x="-163.29552"
           y="-50.206886"
           ry="2.1402841"
           transform="matrix(-0.999999,-0.00141228,0.02393303,-0.99971356,0,0)" /><rect
           style="display:inline;fill:#c0c0c0;fill-opacity:1;stroke-width:0.304798;stroke-linecap:round;stroke-linejoin:round"
           id="rect2-3-3-4-4-9-8-8-0-1-5-6-5-7-1-4-4-4-4"
           width="43.971634"
           height="4.2812881"
           x="-169.15457"
           y="-55.392052"
           ry="2.1406441"
           transform="matrix(-0.99999937,-0.00112105,0.03014548,-0.99954552,0,0)" /><rect
           style="display:inline;fill:#c0c0c0;fill-opacity:1;stroke-width:0.329838;stroke-linecap:round;stroke-linejoin:round"
           id="rect2-3-3-4-4-9-8-8-0-1-5-6-5-7-1-4-4-4-8-2"
           width="51.484749"
           height="4.2820096"
           x="-173.82617"
           y="-60.600967"
           ry="2.1410048"
           transform="matrix(-0.99999954,-9.5745635e-4,0.03529028,-0.9993771,0,0)" /><rect
           style="display:inline;fill:#c0c0c0;fill-opacity:1;stroke-width:0.343675;stroke-linecap:round;stroke-linejoin:round"
           id="rect2-3-3-4-4-9-8-8-0-1-5-6-5-7-1-4-4-4-8-8-0"
           width="55.888958"
           height="4.282485"
           x="-176.77258"
           y="-65.708809"
           ry="2.1412425"
           transform="matrix(-0.99999961,-8.820061e-4,0.0383049,-0.9992661,0,0)" /><rect
           style="display:inline;fill:#c0c0c0;fill-opacity:1;stroke-width:0.352035;stroke-linecap:round;stroke-linejoin:round"
           id="rect2-3-3-4-4-9-8-8-0-1-5-6-5-7-1-4-4-4-8-8-5-7"
           width="58.636806"
           height="4.2828016"
           x="-179.13829"
           y="-70.889061"
           ry="2.1414008"
           transform="matrix(-0.99999965,-8.4067335e-4,0.04018524,-0.99919225,0,0)" /><rect
           style="display:inline;fill:#c0c0c0;fill-opacity:1;stroke-width:0.397786;stroke-linecap:round;stroke-linejoin:round"
           id="rect2-3-3-4-4-9-8-8-0-1-5-6-5-7-1-4-4-4-8-8-5-8-2"
           width="74.829811"
           height="4.2849746"
           x="-189.42009"
           y="-76.118492"
           ry="2.1424873"
           transform="matrix(-0.99999978,-6.5875354e-4,0.0512567,-0.99868551,0,0)" /><rect
           style="display:inline;fill:#c0c0c0;fill-opacity:1;stroke-width:0.429666;stroke-linecap:round;stroke-linejoin:round"
           id="rect2-3-3-4-4-9-8-8-0-1-5-6-5-7-1-4-4-4-8-8-5-8-9-9"
           width="87.263634"
           height="4.2870007"
           x="-194.23155"
           y="-81.274124"
           ry="2.1435003"
           transform="matrix(-0.99999984,-5.6489054e-4,0.05974535,-0.99821365,0,0)" /><rect
           style="display:inline;fill:#c0c0c0;fill-opacity:1;stroke-width:0.447851;stroke-linecap:round;stroke-linejoin:round"
           id="rect2-3-3-4-4-9-8-8-0-1-5-6-5-7-1-4-4-4-8-8-5-8-9-0-5"
           width="94.776421"
           height="4.2883744"
           x="-198.54214"
           y="-86.414726"
           ry="2.1441872"
           transform="matrix(-0.99999986,-5.2011252e-4,0.06486822,-0.99789384,0,0)" /><rect
           style="display:inline;fill:#c0c0c0;fill-opacity:1;stroke-width:0.457883;stroke-linecap:round;stroke-linejoin:round"
           id="rect2-3-3-4-4-9-8-8-0-1-5-6-5-7-1-4-4-4-8-8-5-8-9-0-4-1"
           width="99.050911"
           height="4.2892065"
           x="-201.36189"
           y="-91.584541"
           ry="2.1446033"
           transform="matrix(-0.99999988,-4.9766738e-4,0.06778067,-0.99770025,0,0)" /><rect
           style="display:inline;fill:#c0c0c0;fill-opacity:1;stroke-width:0.457883;stroke-linecap:round;stroke-linejoin:round"
           id="rect2-3-3-4-4-9-8-8-0-1-5-6-5-7-1-4-4-4-8-8-5-8-9-0-4-2-2"
           width="99.050911"
           height="4.2892065"
           x="-201.81895"
           y="-96.675377"
           ry="2.1446033"
           transform="matrix(-0.99999988,-4.9766738e-4,0.06778067,-0.99770025,0,0)" /><rect
           style="display:inline;fill:#c0c0c0;fill-opacity:1;stroke-width:0.452818;stroke-linecap:round;stroke-linejoin:round"
           id="rect2-3-3-4-4-9-8-8-0-1-5-6-5-7-1-4-4-4-8-8-5-8-9-0-4-2-8-0"
           width="96.881294"
           height="4.2887797"
           x="-201.05025"
           y="-101.8689"
           ry="2.1443899"
           transform="matrix(-0.99999987,-5.0881243e-4,0.0663026,-0.99779956,0,0)" /><rect
           style="display:inline;fill:#c0c0c0;fill-opacity:1;stroke-width:0.437016;stroke-linecap:round;stroke-linejoin:round"
           id="rect2-3-3-4-4-9-8-8-0-1-5-6-5-7-1-4-4-4-8-8-5-8-9-0-4-2-8-6-8"
           width="90.263824"
           height="4.2875357"
           x="-197.56439"
           y="-107.04531"
           ry="2.1437678"
           transform="matrix(-0.99999985,-5.4611479e-4,0.06179172,-0.99808907,0,0)" /><rect
           style="display:inline;fill:#c0c0c0;fill-opacity:1;stroke-width:0.399612;stroke-linecap:round;stroke-linejoin:round"
           id="rect2-3-3-4-4-9-8-8-0-1-5-6-5-7-1-4-4-4-8-8-5-8-9-0-4-2-8-6-6-8"
           width="75.517502"
           height="4.285079"
           x="-189.19284"
           y="-112.14575"
           ry="2.1425395"
           transform="matrix(-0.99999979,-6.5275482e-4,0.05172649,-0.99866129,0,0)" /></g><g
         id="g4"
         style="fill:#9d9d9d;fill-opacity:1"><rect
           style="display:inline;fill:#9d9d9d;fill-opacity:1;stroke-width:0.197707;stroke-linecap:round;stroke-linejoin:round"
           id="rect2-3-3-4-4-9-8-8-0-1-5-6-5-7-1-4-1-3"
           width="18.507828"
           height="4.2796869"
           x="-179.17371"
           y="-44.68306"
           ry="2.1398435"
           transform="matrix(-0.99999645,-0.00266343,0.01269306,-0.99991944,0,0)" /><rect
           style="display:inline;fill:#9d9d9d;fill-opacity:1;stroke-width:0.217067;stroke-linecap:round;stroke-linejoin:round"
           id="rect2-3-3-4-4-9-8-8-0-1-5-6-5-7-1-4-1-0-2"
           width="22.309158"
           height="4.2798429"
           x="-169.85283"
           y="-39.65691"
           ry="2.1399214"
           transform="matrix(-0.99999756,-0.0022096,0.01529955,-0.99988296,0,0)" /><rect
           style="display:inline;fill:#9d9d9d;fill-opacity:1;stroke-width:0.184295;stroke-linecap:round;stroke-linejoin:round"
           id="rect2-3-3-4-4-9-8-8-0-1-5-6-5-7-1-4-4-4-8-8-5-8-9-0-4-2-8-6-6-3-04"
           width="16.082407"
           height="4.279603"
           x="-207.55276"
           y="-111.58361"
           ry="2.1398015"
           transform="matrix(-0.9999953,-0.00306511,0.01102986,-0.99993917,0,0)" /><rect
           style="display:inline;fill:#9d9d9d;fill-opacity:1;stroke-width:0.209316;stroke-linecap:round;stroke-linejoin:round"
           id="rect2-3-3-4-4-9-8-8-0-1-5-6-5-7-1-4-4-4-8-8-5-8-9-0-4-2-8-6-6-3-0-0"
           width="20.745121"
           height="4.2797756"
           x="-215.74258"
           y="-106.39336"
           ry="2.1398878"
           transform="matrix(-0.99999718,-0.00237619,0.01422716,-0.99989879,0,0)" /><rect
           style="display:inline;fill:#9d9d9d;fill-opacity:1;stroke-width:0.198582;stroke-linecap:round;stroke-linejoin:round"
           id="rect2-3-3-4-4-9-8-8-0-1-5-6-5-7-1-4-4-4-8-8-5-8-9-0-4-2-8-6-6-3-0-99-7"
           width="18.672493"
           height="4.2796931"
           x="-193.30554"
           y="-60.247272"
           ry="2.1398466"
           transform="matrix(-0.99999652,-0.00263994,0.01280597,-0.999918,0,0)" /><rect
           style="display:inline;fill:#9d9d9d;fill-opacity:1;stroke-width:0.198582;stroke-linecap:round;stroke-linejoin:round"
           id="rect2-3-3-4-4-9-8-8-0-1-5-6-5-7-1-4-4-4-8-8-5-8-9-0-4-2-8-6-6-3-0-99-3-77"
           width="18.672493"
           height="4.2796931"
           x="-190.17931"
           y="-55.103046"
           ry="2.1398466"
           transform="matrix(-0.99999652,-0.00263994,0.01280597,-0.999918,0,0)" /><rect
           style="display:inline;fill:#9d9d9d;fill-opacity:1;stroke-width:0.203396;stroke-linecap:round;stroke-linejoin:round"
           id="rect2-3-3-4-4-9-8-8-0-1-5-6-5-7-1-4-4-4-8-8-5-8-9-0-4-2-8-6-6-3-0-99-3-7-3"
           width="19.588476"
           height="4.2797289"
           x="-186.37614"
           y="-50.002396"
           ry="2.1398644"
           transform="matrix(-0.99999683,-0.00251649,0.01343406,-0.99990976,0,0)" /><rect
           style="display:inline;fill:#9d9d9d;fill-opacity:1;stroke-width:0.217332;stroke-linecap:round;stroke-linejoin:round"
           id="rect2-3-3-4-4-9-8-8-0-1-5-6-5-7-1-4-4-4-8-8-5-8-9-0-4-2-8-6-6-3-0-9-2"
           width="22.364361"
           height="4.2798457"
           x="-220.74272"
           y="-101.29286"
           ry="2.1399229"
           transform="matrix(-0.99999757,-0.00220415,0.0153374,-0.99988238,0,0)" /><rect
           style="display:inline;fill:#9d9d9d;fill-opacity:1;stroke-width:0.230472;stroke-linecap:round;stroke-linejoin:round"
           id="rect2-3-3-4-4-9-8-8-0-1-5-6-5-7-1-4-4-4-8-8-5-8-9-0-4-2-8-6-6-3-0-9-9-8"
           width="25.149452"
           height="4.2799788"
           x="-223.27806"
           y="-96.169365"
           ry="2.1399894"
           transform="matrix(-0.99999808,-0.00196006,0.01724688,-0.99985126,0,0)" /><rect
           style="display:inline;fill:#9d9d9d;fill-opacity:1;stroke-width:0.240135;stroke-linecap:round;stroke-linejoin:round"
           id="rect2-3-3-4-4-9-8-8-0-1-5-6-5-7-1-4-4-4-8-8-5-8-9-0-4-2-8-6-6-3-0-9-9-0-9"
           width="27.302002"
           height="4.2800927"
           x="-204.93007"
           y="-65.474068"
           ry="2.1400464"
           transform="matrix(-0.99999837,-0.00180552,0.01872255,-0.99982472,0,0)" /><rect
           style="display:inline;fill:#9d9d9d;fill-opacity:1;stroke-width:0.235318;stroke-linecap:round;stroke-linejoin:round"
           id="rect2-3-3-4-4-9-8-8-0-1-5-6-5-7-1-4-4-4-8-8-5-8-9-0-4-2-8-6-6-3-0-9-9-9-8"
           width="26.218147"
           height="4.2800341"
           x="-224.3091"
           y="-91.114685"
           ry="2.140017"
           transform="matrix(-0.99999823,-0.00188016,0.01797954,-0.99983836,0,0)" /><rect
           style="display:inline;fill:#9d9d9d;fill-opacity:1;stroke-width:0.243801;stroke-linecap:round;stroke-linejoin:round"
           id="rect2-3-3-4-4-9-8-8-0-1-5-6-5-7-1-4-4-4-8-8-5-8-9-0-4-2-8-6-6-3-0-9-9-9-7-1"
           width="28.141699"
           height="4.2801394"
           x="-222.60588"
           y="-81.010963"
           ry="2.1400697"
           transform="matrix(-0.99999847,-0.00175165,0.01929818,-0.99981377,0,0)" /><rect
           style="display:inline;fill:#9d9d9d;fill-opacity:1;stroke-width:0.250071;stroke-linecap:round;stroke-linejoin:round"
           id="rect2-3-3-4-4-9-8-8-0-1-5-6-5-7-1-4-4-4-8-8-5-8-9-0-4-2-8-6-6-3-0-9-9-9-7-2-5"
           width="29.60726"
           height="4.2802248"
           x="-220.35875"
           y="-75.860001"
           ry="2.1401124"
           transform="matrix(-0.99999861,-0.00166494,0.02030279,-0.99979388,0,0)" /><rect
           style="display:inline;fill:#9d9d9d;fill-opacity:1;stroke-width:0.241772;stroke-linecap:round;stroke-linejoin:round"
           id="rect2-3-3-4-4-9-8-8-0-1-5-6-5-7-1-4-4-4-8-8-5-8-9-0-4-2-8-6-6-3-0-9-9-9-3-8"
           width="27.675457"
           height="4.2801127"
           x="-224.40779"
           y="-85.981285"
           ry="2.1400564"
           transform="matrix(-0.99999841,-0.00178116,0.01897857,-0.99981989,0,0)" /><rect
           style="display:inline;fill:#9d9d9d;fill-opacity:1;stroke-width:0.277859;stroke-linecap:round;stroke-linejoin:round"
           id="rect2-3-3-4-4-9-8-8-0-1-5-6-5-7-1-4-4-4-8-8-5-8-9-0-4-2-8-6-6-3-0-9-9-9-3-6-0"
           width="36.548851"
           height="4.2806864"
           x="-216.23396"
           y="-70.713493"
           ry="2.1403432"
           transform="matrix(-0.99999909,-0.00134873,0.0250602,-0.99968594,0,0)" /></g></g></g></svg>
