<?xml version="1.0" encoding="UTF-8" standalone="no"?>
<svg
   width="14"
   height="16"
   fill="currentColor"
   class="bi bi-clipboard-check-fill"
   viewBox="0 0 14 16"
   version="1.1"
   id="svg2"
   sodipodi:docname="clipboard-check-fill.svg"
   inkscape:export-filename="clipboard-check-fill.svg"
   inkscape:export-xdpi="96"
   inkscape:export-ydpi="96"
   xmlns:inkscape="http://www.inkscape.org/namespaces/inkscape"
   xmlns:sodipodi="http://sodipodi.sourceforge.net/DTD/sodipodi-0.dtd"
   xmlns="http://www.w3.org/2000/svg"
   xmlns:svg="http://www.w3.org/2000/svg">
  <sodipodi:namedview
     id="namedview1"
     pagecolor="#ffffff"
     bordercolor="#000000"
     borderopacity="0.25"
     inkscape:showpageshadow="2"
     inkscape:pageopacity="0.0"
     inkscape:pagecheckerboard="0"
     inkscape:deskcolor="#d1d1d1"
     showgrid="false" />
  <defs
     id="defs2" />
  <g
     id="g12"
     style="fill:#ff0000;fill-opacity:1"
     transform="translate(-1)">
    <rect
       style="fill:#ff0000;fill-opacity:1;stroke:none;stroke-width:1.00157;stroke-linecap:round;stroke-linejoin:round;stroke-dasharray:none;stroke-opacity:1"
       id="rect12"
       width="4.2706027"
       height="2.3222632"
       x="5.8646984"
       y="0.7872079" />
    <path
       d="M 6.5,0 A 1.5,1.5 0 0 0 5,1.5 v 1 A 1.5,1.5 0 0 0 6.5,4 h 3 A 1.5,1.5 0 0 0 11,2.5 v -1 A 1.5,1.5 0 0 0 9.5,0 Z m 3,1 A 0.5,0.5 0 0 1 10,1.5 v 1 A 0.5,0.5 0 0 1 9.5,3 h -3 A 0.5,0.5 0 0 1 6,2.5 v -1 A 0.5,0.5 0 0 1 6.5,1 Z"
       id="path1"
       style="fill:#ff0000;fill-opacity:1;stroke:none;stroke-width:1.00157;stroke-dasharray:none;stroke-opacity:1" />
  </g>
  <path
     d="M 3,1.5 H 2 a 2,2 0 0 0 -2,2 V 14 a 2,2 0 0 0 2,2 h 10 a 2,2 0 0 0 2,-2 V 3.5 a 2,2 0 0 0 -2,-2 h -1 v 1 A 2.5,2.5 0 0 1 8.5,5 h -3 A 2.5,2.5 0 0 1 3,2.5 Z m 6.854,7.354 -3,3 a 0.5,0.5 0 0 1 -0.708,0 l -1.5,-1.5 A 0.5006316,0.5006316 0 0 1 5.354,9.646 L 6.5,10.793 9.146,8.146 a 0.5006316,0.5006316 0 0 1 0.708,0.708 z"
     id="path2"
     style="fill:#ff0000;fill-opacity:1" />
</svg>
